<?xml version="1.0" encoding="UTF-8" standalone="no"?>
<svg
   xmlns:dc="http://purl.org/dc/elements/1.1/"
   xmlns:cc="http://creativecommons.org/ns#"
   xmlns:rdf="http://www.w3.org/1999/02/22-rdf-syntax-ns#"
   xmlns:svg="http://www.w3.org/2000/svg"
   xmlns="http://www.w3.org/2000/svg"
   xmlns:sodipodi="http://sodipodi.sourceforge.net/DTD/sodipodi-0.dtd"
   xmlns:inkscape="http://www.inkscape.org/namespaces/inkscape"
   version="1.0"
   width="465.92734pt"
   height="100.60957pt"
   viewBox="0 0 465.92735 100.60955"
   preserveAspectRatio="xMidYMid meet"
   id="svg8"
   sodipodi:docname="book.svg"
   inkscape:version="0.92.4 (5da689c313, 2019-01-14)">
  <defs
     id="defs12" />
  <sodipodi:namedview
     pagecolor="#ffffff"
     bordercolor="#666666"
     borderopacity="1"
     objecttolerance="10"
     gridtolerance="10"
     guidetolerance="10"
     inkscape:pageopacity="0"
     inkscape:pageshadow="2"
     inkscape:window-width="1920"
     inkscape:window-height="1009"
     id="namedview10"
     showgrid="false"
     fit-margin-top="0"
     fit-margin-left="0"
     fit-margin-right="0"
     fit-margin-bottom="0"
     inkscape:zoom="1.10625"
     inkscape:cx="145.73479"
     inkscape:cy="-13.527423"
     inkscape:window-x="0"
     inkscape:window-y="34"
     inkscape:window-maximized="1"
     inkscape:current-layer="svg8" />
  <metadata
     id="metadata2">
Created by potrace 1.15, written by Peter Selinger 2001-2017
<rdf:RDF>
  <cc:Work
     rdf:about="">
    <dc:format>image/svg+xml</dc:format>
    <dc:type
       rdf:resource="http://purl.org/dc/dcmitype/StillImage" />
    <dc:title />
  </cc:Work>
</rdf:RDF>
</metadata>
  <g
     transform="matrix(0.01493167,0,0,-0.01493167,-23.412859,144.20089)"
     id="g6"
     style="fill:#00c663;fill-opacity:1;stroke:none">
    <path
       d="m 8560,9654 c -19,-2 -98,-9 -175,-15 -77,-6 -203,-21 -281,-34 -436,-74 -706,-194 -925,-414 -53,-53 -108,-112 -122,-131 l -27,-35 -26,35 c -104,137 -325,310 -495,388 -490,226 -1392,266 -2489,111 -200,-28 -619,-101 -754,-131 l -60,-13 -178,-255 c -143,-204 -183,-256 -206,-261 -15,-4 -196,-14 -402,-23 -451,-20 -458,-20 -470,-49 -5,-12 -25,-272 -45,-577 -20,-305 -47,-715 -60,-910 -14,-195 -49,-728 -80,-1185 -30,-456 -62,-927 -70,-1045 -8,-118 -33,-485 -55,-815 -22,-330 -42,-629 -45,-665 -2,-36 -10,-139 -16,-230 l -11,-165 58,-153 c 33,-85 66,-157 74,-162 8,-4 308,12 665,36 1105,73 1393,92 2250,149 457,30 976,65 1155,77 l 325,21 150,-51 c 278,-95 488,-143 710,-163 291,-26 621,32 928,163 114,49 127,52 197,50 41,-1 1029,-61 2194,-133 1730,-106 2122,-128 2131,-117 7,7 36,80 65,162 l 53,148 -62,877 c -109,1547 -218,3094 -277,3936 -40,581 -61,824 -70,834 -10,11 -83,17 -321,27 -169,7 -357,15 -418,18 -60,3 -128,6 -151,6 h -40 l -173,239 c -137,191 -177,241 -199,245 -368,76 -891,154 -1283,192 -153,14 -878,28 -969,18 z m 840,-649 c 312,-28 741,-83 996,-126 l 61,-11 7,-121 c 3,-67 11,-214 16,-327 42,-887 70,-1490 75,-1570 11,-209 17,-330 45,-940 16,-349 32,-668 35,-709 l 6,-73 -33,4 c -18,3 -143,21 -278,41 -496,73 -763,92 -1330,92 -469,0 -580,-6 -830,-46 -344,-54 -645,-180 -887,-370 -35,-27 -67,-49 -73,-49 -6,0 -10,476 -12,1393 -4,2037 -4,2004 10,2072 60,277 171,424 414,550 197,102 480,173 818,205 144,13 757,4 960,-15 z m -3620,-4 c 147,-18 335,-59 447,-96 339,-113 536,-298 625,-587 l 23,-73 3,-1718 c 2,-1385 0,-1717 -10,-1710 -7,4 -52,34 -100,66 -275,183 -636,297 -1108,353 -185,21 -677,29 -915,15 -338,-21 -744,-63 -1119,-116 -94,-14 -171,-23 -173,-21 -2,2 3,149 11,327 9,178 22,482 31,674 8,193 17,397 20,455 13,268 16,347 30,665 8,187 24,536 35,775 11,239 22,516 26,615 4,99 10,189 15,201 6,16 21,23 76,32 37,7 133,23 213,37 274,47 599,87 865,105 88,6 180,12 205,14 97,8 710,-3 800,-13 z M 3195,8333 c -3,-49 -14,-272 -25,-498 -11,-225 -27,-540 -35,-700 -18,-344 -49,-980 -70,-1405 -16,-322 -21,-418 -31,-595 l -7,-109 -150,-226 c -82,-124 -154,-229 -159,-235 -10,-9 -6,166 7,360 3,39 12,196 20,350 8,154 24,447 35,650 11,204 29,541 40,750 11,209 27,506 35,660 8,154 17,316 20,360 2,44 8,132 11,195 l 7,115 151,207 c 83,115 152,208 154,208 2,0 1,-39 -3,-87 z m 7844,-136 149,-208 6,-92 c 3,-51 15,-252 26,-447 11,-195 29,-512 40,-705 59,-1028 83,-1437 95,-1665 3,-52 10,-162 15,-245 5,-82 10,-174 10,-204 v -54 l -164,237 -164,236 -6,88 c -4,48 -18,303 -31,567 -14,264 -39,732 -55,1040 -17,308 -39,731 -50,940 -21,405 -26,495 -36,645 -4,67 -3,92 5,85 6,-6 77,-104 160,-218 z m 705,55 c 3,-37 8,-105 11,-152 3,-47 21,-328 40,-625 35,-534 47,-725 125,-1925 22,-338 47,-721 55,-850 8,-129 17,-269 20,-310 3,-41 14,-214 25,-385 11,-170 22,-343 25,-384 l 6,-73 -133,7 c -73,4 -135,9 -137,11 -2,2 14,66 37,142 l 42,137 -10,145 c -5,80 -50,793 -100,1585 -50,792 -108,1725 -130,2074 -22,349 -40,644 -40,655 0,20 5,21 79,18 l 79,-3 z m -9259,-69 c -3,-43 -17,-271 -30,-508 -26,-434 -50,-849 -60,-1005 -7,-112 -54,-902 -115,-1950 -16,-278 -32,-532 -34,-565 -3,-33 -8,-126 -12,-206 l -7,-146 43,-127 c 23,-70 40,-129 37,-132 -5,-5 -260,-24 -265,-20 -1,2 25,441 58,977 33,536 76,1233 95,1549 19,316 37,609 40,650 3,41 23,368 45,725 22,358 42,692 46,743 l 6,92 h 80 79 z M 9200,4670 c 449,-21 830,-62 1362,-146 l 227,-36 120,-181 c 66,-100 119,-182 118,-183 -1,-2 -268,15 -592,36 -608,40 -1564,102 -2230,145 -209,13 -404,26 -433,29 -51,4 -54,3 -110,-45 -31,-27 -95,-69 -142,-93 -84,-44 -218,-91 -228,-81 -3,3 16,37 42,75 249,363 880,526 1866,480 z m -3720,-10 c 573,-33 914,-135 1134,-340 56,-51 152,-183 138,-188 -16,-5 -164,56 -217,89 -28,17 -69,49 -93,71 l -43,39 -67,-6 c -37,-3 -391,-28 -787,-55 -844,-58 -1125,-77 -1880,-130 -308,-21 -561,-37 -563,-35 -4,3 213,342 232,363 15,15 148,39 516,92 628,90 1196,125 1630,100 z"
       id="path4"
       inkscape:connector-curvature="0"
       style="fill:#00c663;fill-opacity:1" />
  </g>
  <g
     aria-label="betterbib"
     style="font-style:normal;font-variant:normal;font-weight:normal;font-stretch:normal;font-size:9.5625px;line-height:0%;font-family:'Helvetica LT Std';-inkscape-font-specification:'Helvetica LT Std';letter-spacing:0px;word-spacing:0px;fill:#000000;fill-opacity:1;stroke:none;stroke-width:0.75px;stroke-linecap:butt;stroke-linejoin:miter;stroke-opacity:1"
     id="text824">
    <path
       d="m 195.15585,65.197228 q 0,2.905274 1.29883,4.443359 1.33301,1.503906 3.82812,1.503906 3.86231,0 5.74219,-3.110351 1.87988,-3.144531 1.87988,-9.570311 0,-5.639648 -1.8457,-8.71582 -1.81152,-3.110351 -5.16113,-3.110351 -3.11035,0 -4.44336,2.050781 -1.29883,2.016602 -1.29883,7.348632 z m 0.30762,-19.687497 q 1.77734,-1.538086 3.89648,-2.290039 2.11914,-0.786133 4.7168,-0.786133 6.0498,0 10.01465,4.409179 3.96484,4.409179 3.96484,11.279296 0,7.622069 -4.30664,12.270506 -4.27246,4.614258 -11.31348,4.614258 -3.00781,0 -5.33203,-0.888672 -2.29004,-0.854492 -3.89648,-2.631836 l -7.34863,3.520508 V 31.940396 q 0,-1.538086 -0.82031,-2.11914 -0.82032,-0.615235 -3.28125,-0.751953 l -0.0342,-2.597656 q 5.22949,-0.444336 8.33984,-0.957031 3.11035,-0.512696 5.40039,-1.264649 z"
       style="font-style:normal;font-variant:normal;font-weight:bold;font-stretch:normal;font-size:69.99999237px;font-family:Baskerville;-inkscape-font-specification:'Baskerville Bold';stroke-width:0.75px"
       id="path815" />
    <path
       d="m 233.23202,53.986292 h 11.48437 V 53.16598 q 0,-3.828125 -1.36718,-5.844726 -1.36719,-2.016602 -3.96485,-2.016602 -2.73437,0 -4.27246,2.153321 -1.5039,2.11914 -1.87988,6.528319 z m 17.63672,11.962889 2.39257,2.119141 q -2.42675,3.486328 -5.91308,5.229491 -3.45215,1.708985 -8.10059,1.708985 -7.38281,0 -12.06542,-4.477539 -4.68262,-4.511718 -4.68262,-11.552733 0,-7.348632 4.81933,-11.962889 4.85352,-4.648437 12.54395,-4.648437 6.63086,0 10.28808,3.793945 3.65723,3.759765 3.65723,10.561522 v 0.581054 h -20.57617 q 0,0.239258 -0.0342,0.717774 -0.0342,0.478515 -0.0342,0.649414 0,5.810546 2.3584,8.920897 2.39258,3.076172 6.87012,3.076172 1.40136,0 2.66601,-0.375977 1.29883,-0.375976 2.46094,-1.09375 0.64941,-0.444335 1.46972,-1.264648 0.8545,-0.820312 1.87989,-1.982422 z"
       style="font-style:normal;font-variant:normal;font-weight:bold;font-stretch:normal;font-size:69.99999237px;font-family:Baskerville;-inkscape-font-specification:'Baskerville Bold';stroke-width:0.75px"
       id="path817" />
    <path
       d="M 260.67831,65.402307 V 46.432582 h -3.52051 v -2.802734 q 3.62305,-0.615234 6.15234,-3.110351 2.56348,-2.495117 4.27246,-7.109374 h 2.73438 v 9.809569 h 7.21191 v 3.21289 h -7.21191 v 20.166013 q 0,2.084961 0.51269,2.836914 0.5127,0.717774 1.81153,0.717774 1.09375,0 2.0166,-0.615235 0.92285,-0.649414 1.81152,-2.016601 l 2.39258,1.948242 q -1.77735,2.768554 -4.30664,4.169921 -2.5293,1.367188 -5.84473,1.367188 -4.375,0 -6.2207,-2.119141 -1.81152,-2.15332 -1.81152,-7.48535 z"
       style="font-style:normal;font-variant:normal;font-weight:bold;font-stretch:normal;font-size:69.99999237px;font-family:Baskerville;-inkscape-font-specification:'Baskerville Bold';stroke-width:0.75px"
       id="path819" />
    <path
       d="M 283.64706,65.402307 V 46.432582 h -3.52051 v -2.802734 q 3.62305,-0.615234 6.15234,-3.110351 2.56348,-2.495117 4.27246,-7.109374 h 2.73438 v 9.809569 h 7.21191 v 3.21289 h -7.21191 v 20.166013 q 0,2.084961 0.51269,2.836914 0.5127,0.717774 1.81153,0.717774 1.09375,0 2.0166,-0.615235 0.92285,-0.649414 1.81152,-2.016601 l 2.39258,1.948242 q -1.77735,2.768554 -4.30664,4.169921 -2.5293,1.367188 -5.84473,1.367188 -4.375,0 -6.2207,-2.119141 -1.81152,-2.15332 -1.81152,-7.48535 z"
       style="font-style:normal;font-variant:normal;font-weight:bold;font-stretch:normal;font-size:69.99999237px;font-family:Baskerville;-inkscape-font-specification:'Baskerville Bold';stroke-width:0.75px"
       id="path821" />
    <path
       d="M 314.30623,53.986292 H 325.7906 V 53.16598 q 0,-3.828125 -1.36719,-5.844726 -1.36718,-2.016602 -3.96484,-2.016602 -2.73437,0 -4.27246,2.153321 -1.50391,2.11914 -1.87988,6.528319 z m 17.63671,11.962889 2.39258,2.119141 q -2.42676,3.486328 -5.91308,5.229491 -3.45215,1.708985 -8.10059,1.708985 -7.38281,0 -12.06543,-4.477539 -4.68261,-4.511718 -4.68261,-11.552733 0,-7.348632 4.81933,-11.962889 4.85352,-4.648437 12.54395,-4.648437 6.63085,0 10.28808,3.793945 3.65723,3.759765 3.65723,10.561522 v 0.581054 h -20.57617 q 0,0.239258 -0.0342,0.717774 -0.0342,0.478515 -0.0342,0.649414 0,5.810546 2.3584,8.920897 2.39257,3.076172 6.87011,3.076172 1.40137,0 2.66602,-0.375977 1.29883,-0.375976 2.46094,-1.09375 0.64941,-0.444335 1.46972,-1.264648 0.85449,-0.820312 1.87988,-1.982422 z"
       style="font-style:normal;font-variant:normal;font-weight:bold;font-stretch:normal;font-size:69.99999237px;font-family:Baskerville;-inkscape-font-specification:'Baskerville Bold';stroke-width:0.75px"
       id="path823" />
    <path
       d="M 338.64217,74.152306 V 71.55465 q 2.70019,-0.273438 3.55468,-0.991211 0.8545,-0.717774 0.8545,-2.631836 V 53.644495 q 0,-3.759765 -0.92286,-5.024413 -0.92285,-1.298828 -3.38379,-1.333008 l -0.0342,-2.460937 q 3.96484,-0.444336 6.87011,-1.025391 2.93945,-0.615234 4.99024,-1.435546 h 1.1621 l 0.58106,6.083983 q 1.87988,-2.768554 4.13574,-4.23828 2.29004,-1.469727 4.68262,-1.469727 2.73437,0 4.23828,1.298828 1.5039,1.298828 1.5039,3.657226 0,1.948242 -1.19628,3.110352 -1.16211,1.162109 -3.14454,1.162109 -1.81152,0 -3.3496,-1.811523 -1.53809,-1.845703 -2.1875,-1.845703 -1.43555,0 -2.76856,2.11914 -1.29883,2.084961 -1.29883,4.545898 v 13.159178 q 0,1.982422 0.95703,2.700195 0.99122,0.717774 3.96485,0.717774 l -0.0342,2.597656 q -3.75977,-0.06836 -5.94727,-0.102539 -2.15332,-0.03418 -3.96484,-0.03418 -2.97363,0 -5.05859,0.03418 -2.05078,0.03418 -4.2041,0.102539 z"
       style="font-style:normal;font-variant:normal;font-weight:bold;font-stretch:normal;font-size:69.99999237px;font-family:Baskerville;-inkscape-font-specification:'Baskerville Bold';stroke-width:0.75px"
       id="path825" />
    <path
       d="m 381.09334,65.197228 q 0,2.905274 1.29882,4.443359 1.33301,1.503906 3.82813,1.503906 3.8623,0 5.74219,-3.110351 1.87988,-3.144531 1.87988,-9.570311 0,-5.639648 -1.8457,-8.71582 -1.81153,-3.110351 -5.16114,-3.110351 -3.11035,0 -4.44336,2.050781 -1.29882,2.016602 -1.29882,7.348632 z m 0.30761,-19.687497 q 1.77735,-1.538086 3.89649,-2.290039 2.11914,-0.786133 4.71679,-0.786133 6.04981,0 10.01465,4.409179 3.96484,4.409179 3.96484,11.279296 0,7.622069 -4.30664,12.270506 -4.27246,4.614258 -11.31347,4.614258 -3.00781,0 -5.33203,-0.888672 -2.29004,-0.854492 -3.89649,-2.631836 l -7.34863,3.520508 V 31.940396 q 0,-1.538086 -0.82031,-2.11914 -0.82031,-0.615235 -3.28125,-0.751953 l -0.0342,-2.597656 q 5.22949,-0.444336 8.33984,-0.957031 3.11035,-0.512696 5.40039,-1.264649 z"
       style="font-style:normal;font-variant:normal;font-weight:bold;font-stretch:normal;font-size:69.99999237px;font-family:Baskerville;-inkscape-font-specification:'Baskerville Bold';stroke-width:0.75px"
       id="path827" />
    <path
       d="m 412.0943,29.787076 q 0,-2.221679 1.53808,-3.759765 1.53809,-1.572266 3.79395,-1.572266 2.22168,0 3.75976,1.572266 1.53809,1.538086 1.53809,3.759765 0,2.1875 -1.57227,3.759765 -1.53808,1.538086 -3.72558,1.538086 -2.22168,0 -3.79395,-1.538086 -1.53808,-1.572265 -1.53808,-3.759765 z m -3.62305,44.433589 V 71.55465 q 2.73438,-0.136719 3.55469,-0.820313 0.85449,-0.683593 0.85449,-2.871093 V 51.320277 q 0,-2.460937 -0.85449,-3.24707 -0.82031,-0.820313 -3.55469,-0.922852 l -0.0342,-2.460937 q 4.47754,-0.478515 7.82715,-1.09375 3.34961,-0.615234 5.50293,-1.367187 h 1.02539 v 25.634763 q 0,2.1875 0.82031,2.871093 0.82031,0.683594 3.58887,0.820313 v 2.666015 q -3.41797,-0.102539 -5.57129,-0.170898 -2.15332,-0.03418 -3.17871,-0.03418 -2.66602,0 -5.19531,0.03418 -2.49512,0.06836 -4.78516,0.170898 z"
       style="font-style:normal;font-variant:normal;font-weight:bold;font-stretch:normal;font-size:69.99999237px;font-family:Baskerville;-inkscape-font-specification:'Baskerville Bold';stroke-width:0.75px"
       id="path829" />
    <path
       d="m 443.02692,65.197228 q 0,2.905274 1.29882,4.443359 1.33301,1.503906 3.82813,1.503906 3.8623,0 5.74218,-3.110351 1.87989,-3.144531 1.87989,-9.570311 0,-5.639648 -1.84571,-8.71582 -1.81152,-3.110351 -5.16113,-3.110351 -3.11035,0 -4.44336,2.050781 -1.29882,2.016602 -1.29882,7.348632 z m 0.30761,-19.687497 q 1.77735,-1.538086 3.89649,-2.290039 2.11914,-0.786133 4.71679,-0.786133 6.04981,0 10.01465,4.409179 3.96484,4.409179 3.96484,11.279296 0,7.622069 -4.30664,12.270506 -4.27246,4.614258 -11.31347,4.614258 -3.00781,0 -5.33203,-0.888672 -2.29004,-0.854492 -3.89649,-2.631836 l -7.34863,3.520508 V 31.940396 q 0,-1.538086 -0.82031,-2.11914 -0.82031,-0.615235 -3.28125,-0.751953 l -0.0342,-2.597656 q 5.22949,-0.444336 8.33984,-0.957031 3.11035,-0.512696 5.40039,-1.264649 z"
       style="font-style:normal;font-variant:normal;font-weight:bold;font-stretch:normal;font-size:69.99999237px;font-family:Baskerville;-inkscape-font-specification:'Baskerville Bold';stroke-width:0.75px"
       id="path831" />
  </g>
</svg>
