<svg xmlns="http://www.w3.org/2000/svg" viewBox="0 0 465.927 100.61" height="134.146" width="621.236" version="1.0"><path d="M104.402.05c-.283.03-1.463.135-2.613.225s-3.03.313-4.196.507c-6.51 1.105-10.541 2.897-13.811 6.182-.792.791-1.613 1.672-1.822 1.956l-.403.523-.388-.523c-1.553-2.046-4.853-4.629-7.392-5.794C66.461-.248 52.992-.845 36.612 1.47c-2.986.418-9.242 1.508-11.258 1.956l-.896.194L21.8 7.427c-2.135 3.046-2.732 3.822-3.076 3.897-.224.06-2.926.209-6.002.343-6.734.299-6.839.299-7.018.732-.075.18-.373 4.061-.672 8.616-.299 4.554-.702 10.676-.896 13.587-.209 2.912-.732 10.87-1.194 17.694A7402.74 7402.74 0 0 1 1.896 67.9c-.12 1.762-.492 7.242-.82 12.17-.33 4.927-.628 9.391-.673 9.929-.03.537-.15 2.075-.239 3.434L0 95.897l.866 2.284c.493 1.27.986 2.345 1.105 2.42.12.06 4.599-.18 9.93-.538 16.499-1.09 20.8-1.374 33.596-2.225 6.824-.448 14.573-.97 17.246-1.15l4.853-.313 2.24.761c4.15 1.419 7.286 2.135 10.6 2.434 4.346.388 9.273-.478 13.857-2.434 1.703-.731 1.897-.776 2.942-.746.612.015 15.365.91 32.76 1.986 25.832 1.582 31.685 1.91 31.82 1.747.104-.105.537-1.195.97-2.42l.791-2.21-.925-13.094c-1.628-23.1-3.255-46.199-4.136-58.771-.598-8.676-.911-12.304-1.046-12.453-.149-.165-1.239-.254-4.793-.404-2.523-.104-5.33-.223-6.241-.268a71.844 71.844 0 0 0-2.255-.09h-.597L141 6.844c-2.046-2.851-2.643-3.598-2.972-3.658-5.494-1.135-13.304-2.3-19.157-2.867-2.285-.209-13.11-.418-14.469-.268zm12.543 9.691c4.659.418 11.064 1.24 14.872 1.882l.91.164.105 1.807c.045 1 .164 3.195.239 4.882.627 13.245 1.045 22.248 1.12 23.443.164 3.12.254 4.927.672 14.036.239 5.21.478 9.974.522 10.586l.09 1.09-.493-.06c-.268-.044-2.135-.313-4.15-.612-7.407-1.09-11.394-1.373-19.86-1.373-7.003 0-8.66.09-12.393.687-5.137.806-9.631 2.687-13.245 5.524-.522.403-1 .732-1.09.732-.09 0-.149-7.108-.179-20.8-.06-30.416-.06-29.923.15-30.938.896-4.136 2.553-6.331 6.181-8.213 2.942-1.523 7.168-2.583 12.214-3.06 2.15-.195 11.304-.06 14.335.223zm-54.053.06c2.195.269 5.002.88 6.675 1.433 5.061 1.688 8.003 4.45 9.332 8.765l.343 1.09.045 25.653c.03 20.68 0 25.638-.15 25.533-.104-.06-.776-.508-1.492-.985-4.107-2.733-9.497-4.435-16.545-5.271-2.762-.314-10.108-.433-13.662-.224-5.047.313-11.11.94-16.709 1.732-1.403.209-2.553.343-2.583.313-.03-.03.045-2.224.164-4.882.135-2.658.329-7.197.463-10.064.12-2.882.254-5.928.299-6.794.194-4.002.239-5.181.448-9.93.12-2.792.358-8.003.523-11.572.164-3.568.328-7.705.388-9.183.06-1.478.15-2.822.224-3.001.09-.239.313-.343 1.135-.478.552-.104 1.985-.343 3.18-.552 4.091-.702 8.944-1.3 12.916-1.568 1.314-.09 2.688-.18 3.06-.21 1.45-.119 10.602.046 11.946.195zm-38.598 9.974c-.045.732-.21 4.062-.373 7.436-.165 3.36-.404 8.063-.523 10.452-.269 5.137-.732 14.633-1.045 20.98-.24 4.807-.314 6.24-.463 8.884l-.105 1.627-2.24 3.375c-1.224 1.851-2.299 3.42-2.374 3.509-.149.134-.09-2.479.105-5.376.045-.582.18-2.926.299-5.226s.358-6.674.522-9.705c.164-3.046.433-8.078.597-11.199.165-3.12.404-7.555.523-9.855.12-2.3.254-4.718.299-5.375.03-.657.12-1.971.164-2.912l.104-1.717 2.255-3.091c1.24-1.717 2.27-3.106 2.3-3.106.03 0 .015.583-.045 1.3zm117.124 2.031 2.225 3.106.09 1.373c.044.762.223 3.763.387 6.675.165 2.912.433 7.645.598 10.527.88 15.35 1.24 21.457 1.418 24.861.045.776.15 2.419.224 3.658.075 1.225.15 2.598.15 3.046v.807l-2.45-3.54-2.448-3.523-.09-1.314c-.06-.717-.268-4.524-.463-8.466-.209-3.942-.582-10.93-.82-15.53-.255-4.598-.583-10.914-.747-14.035-.314-6.047-.389-7.391-.538-9.63-.06-1.001-.045-1.375.075-1.27.09.09 1.15 1.553 2.389 3.255zm10.527-.821c.044.552.12 1.568.164 2.27l.597 9.332c.523 7.973.702 10.825 1.867 28.743.328 5.047.701 10.766.82 12.692.12 1.926.255 4.017.3 4.629.044.612.209 3.195.373 5.749.164 2.538.328 5.121.373 5.733l.09 1.09-1.986-.104c-1.09-.06-2.016-.135-2.046-.164-.03-.03.21-.986.553-2.12l.627-2.046-.15-2.165c-.074-1.195-.746-11.841-1.493-23.667-.746-11.826-1.612-25.757-1.94-30.968-.33-5.212-.598-9.616-.598-9.78 0-.3.075-.314 1.18-.27l1.18.045zm-138.253 1.03c-.044.642-.253 4.047-.448 7.585-.388 6.48-.746 12.677-.896 15.007-.104 1.672-.806 13.468-1.717 29.116-.239 4.151-.477 7.944-.507 8.437-.045.493-.12 1.881-.18 3.076l-.104 2.18.642 1.896c.343 1.045.597 1.926.553 1.971-.075.075-3.883.358-3.957.299-.015-.03.373-6.585.866-14.589.492-8.003 1.134-18.41 1.418-23.129.284-4.718.553-9.093.597-9.705.045-.612.344-5.495.672-10.826.329-5.345.627-10.332.687-11.094l.09-1.374h2.374zM113.96 74.47c6.704.314 12.393.926 20.336 2.18l3.39.538 1.792 2.702c.985 1.493 1.777 2.718 1.762 2.733-.015.03-4.002-.224-8.84-.538-9.078-.597-23.353-1.523-33.298-2.165-3.12-.194-6.032-.388-6.465-.433-.761-.06-.806-.045-1.642.672-.463.403-1.419 1.03-2.12 1.389-1.255.657-3.256 1.358-3.405 1.21-.045-.046.239-.553.627-1.12 3.718-5.421 13.14-7.855 27.863-7.168zm-55.546.15c8.556.492 13.647 2.015 16.932 5.076.836.762 2.27 2.733 2.06 2.807-.238.075-2.448-.836-3.24-1.329a10.662 10.662 0 0 1-1.388-1.06l-.642-.582-1 .09c-.553.044-5.839.418-11.752.82-12.602.867-16.798 1.15-28.071 1.942-4.6.313-8.377.552-8.407.522-.06-.044 3.18-5.106 3.464-5.42.224-.224 2.21-.582 7.705-1.374 9.377-1.343 17.858-1.866 24.339-1.493z" fill="#00c663"/><g style="line-height:0%;-inkscape-font-specification:'Helvetica LT Std'" aria-label="betterbib" font-weight="700" font-size="70" font-family="Baskerville" letter-spacing="0" word-spacing="0" fill="gray" stroke-width=".75"><path style="-inkscape-font-specification:'Baskerville Bold'" d="M195.156 65.197q0 2.906 1.299 4.444 1.333 1.503 3.828 1.503 3.862 0 5.742-3.11 1.88-3.144 1.88-9.57 0-5.64-1.846-8.716-1.811-3.11-5.161-3.11-3.11 0-4.443 2.05-1.3 2.017-1.3 7.35zm.307-19.687q1.778-1.538 3.897-2.29 2.12-.786 4.717-.786 6.05 0 10.014 4.409 3.965 4.409 3.965 11.279 0 7.622-4.306 12.27-4.273 4.615-11.314 4.615-3.008 0-5.332-.889-2.29-.854-3.896-2.632l-7.349 3.52V31.94q0-1.538-.82-2.119-.82-.615-3.282-.752l-.034-2.597q5.23-.445 8.34-.957 3.11-.513 5.4-1.265zm37.769 8.476h11.484v-.82q0-3.828-1.367-5.845-1.367-2.016-3.965-2.016-2.734 0-4.272 2.153-1.504 2.12-1.88 6.528zm17.637 11.963 2.392 2.12q-2.426 3.486-5.913 5.229-3.452 1.709-8.1 1.709-7.383 0-12.066-4.478-4.682-4.511-4.682-11.552 0-7.35 4.819-11.963 4.853-4.649 12.544-4.649 6.63 0 10.288 3.794 3.657 3.76 3.657 10.562v.58h-20.576q0 .24-.034.718-.034.479-.034.65 0 5.81 2.358 8.92 2.393 3.077 6.87 3.077 1.401 0 2.666-.376 1.299-.376 2.461-1.094.65-.444 1.47-1.264.854-.82 1.88-1.983zm9.809-.547v-18.97h-3.52V43.63q3.623-.615 6.152-3.11 2.564-2.496 4.273-7.11h2.734v9.81h7.212v3.213h-7.212v20.166q0 2.085.513 2.837.512.717 1.811.717 1.094 0 2.017-.615.923-.65 1.811-2.017l2.393 1.949q-1.777 2.768-4.307 4.17-2.529 1.367-5.844 1.367-4.375 0-6.221-2.12-1.812-2.153-1.812-7.485zm22.969 0v-18.97h-3.52V43.63q3.623-.615 6.152-3.11 2.563-2.496 4.272-7.11h2.735v9.81h7.212v3.213h-7.212v20.166q0 2.085.512 2.837.513.717 1.812.717 1.094 0 2.017-.615.922-.65 1.811-2.017l2.393 1.949q-1.778 2.768-4.307 4.17-2.53 1.367-5.845 1.367-4.375 0-6.22-2.12-1.812-2.153-1.812-7.485zm30.659-11.416h11.485v-.82q0-3.828-1.368-5.845-1.367-2.016-3.964-2.016-2.735 0-4.273 2.153-1.504 2.12-1.88 6.528zm17.637 11.963 2.393 2.12q-2.427 3.486-5.914 5.229-3.452 1.709-8.1 1.709-7.383 0-12.066-4.478-4.682-4.511-4.682-11.552 0-7.35 4.82-11.963 4.853-4.649 12.543-4.649 6.63 0 10.288 3.794 3.657 3.76 3.657 10.562v.58h-20.576q0 .24-.034.718-.034.479-.034.65 0 5.81 2.358 8.92 2.393 3.077 6.87 3.077 1.402 0 2.666-.376 1.3-.376 2.461-1.094.65-.444 1.47-1.264.855-.82 1.88-1.983zm6.699 8.203v-2.597q2.7-.274 3.555-.992.854-.717.854-2.631V53.644q0-3.76-.923-5.024-.922-1.299-3.383-1.333l-.034-2.46q3.964-.445 6.87-1.026 2.94-.615 4.99-1.436h1.162l.581 6.084q1.88-2.768 4.136-4.238 2.29-1.47 4.682-1.47 2.735 0 4.239 1.299t1.504 3.657q0 1.948-1.197 3.11-1.162 1.163-3.144 1.163-1.812 0-3.35-1.812-1.538-1.846-2.187-1.846-1.436 0-2.769 2.12-1.299 2.085-1.299 4.546v13.159q0 1.982.957 2.7.991.718 3.965.718l-.034 2.597q-3.76-.068-5.947-.102-2.154-.034-3.965-.034-2.974 0-5.059.034-2.05.034-4.204.102zm42.451-8.955q0 2.906 1.3 4.444 1.332 1.503 3.827 1.503 3.863 0 5.742-3.11 1.88-3.144 1.88-9.57 0-5.64-1.845-8.716-1.812-3.11-5.161-3.11-3.11 0-4.444 2.05-1.299 2.017-1.299 7.35zm.308-19.687q1.777-1.538 3.896-2.29 2.12-.786 4.717-.786 6.05 0 10.015 4.409 3.965 4.409 3.965 11.279 0 7.622-4.307 12.27-4.272 4.615-11.313 4.615-3.008 0-5.332-.889-2.29-.854-3.897-2.632l-7.349 3.52V31.94q0-1.538-.82-2.119-.82-.615-3.281-.752l-.034-2.597q5.23-.445 8.34-.957 3.11-.513 5.4-1.265zm30.693-15.723q0-2.222 1.538-3.76 1.538-1.572 3.794-1.572 2.222 0 3.76 1.572 1.538 1.538 1.538 3.76 0 2.188-1.572 3.76-1.538 1.538-3.726 1.538-2.221 0-3.794-1.538-1.538-1.572-1.538-3.76zm-3.623 44.434v-2.666q2.735-.137 3.555-.82.854-.684.854-2.872V51.32q0-2.46-.854-3.247-.82-.82-3.555-.923l-.034-2.46q4.478-.48 7.827-1.094 3.35-.616 5.503-1.368h1.026v25.635q0 2.188.82 2.871.82.684 3.589.82v2.667q-3.418-.103-5.572-.171-2.153-.034-3.178-.034-2.666 0-5.196.034-2.495.068-4.785.17zm34.556-9.024q0 2.906 1.299 4.444 1.333 1.503 3.828 1.503 3.862 0 5.742-3.11 1.88-3.144 1.88-9.57 0-5.64-1.846-8.716-1.811-3.11-5.16-3.11-3.111 0-4.444 2.05-1.3 2.017-1.3 7.35zm.308-19.687q1.777-1.538 3.896-2.29 2.12-.786 4.717-.786 6.05 0 10.014 4.409 3.965 4.409 3.965 11.279 0 7.622-4.306 12.27-4.273 4.615-11.314 4.615-3.008 0-5.332-.889-2.29-.854-3.896-2.632l-7.349 3.52V31.94q0-1.538-.82-2.119-.82-.615-3.282-.752l-.034-2.597q5.23-.445 8.34-.957 3.11-.513 5.4-1.265z"/></g></svg>